<svg width="112" height="45" viewBox="0 0 112 45" fill="none" xmlns="http://www.w3.org/2000/svg">
<path d="M29.8164 24.83C29.8164 23.15 30.1464 21.66 30.8064 20.36C31.4864 19.06 32.3964 18.06 33.5364 17.36C34.6964 16.66 35.9864 16.31 37.4064 16.31C38.6464 16.31 39.7264 16.56 40.6464 17.06C41.5864 17.56 42.3364 18.19 42.8964 18.95V16.58H47.1264V33.2H42.8964V30.77C42.3564 31.55 41.6064 32.2 40.6464 32.72C39.7064 33.22 38.6164 33.47 37.3764 33.47C35.9764 33.47 34.6964 33.11 33.5364 32.39C32.3964 31.67 31.4864 30.66 30.8064 29.36C30.1464 28.04 29.8164 26.53 29.8164 24.83ZM42.8964 24.89C42.8964 23.87 42.6964 23 42.2964 22.28C41.8964 21.54 41.3564 20.98 40.6764 20.6C39.9964 20.2 39.2664 20 38.4864 20C37.7064 20 36.9864 20.19 36.3264 20.57C35.6664 20.95 35.1264 21.51 34.7064 22.25C34.3064 22.97 34.1064 23.83 34.1064 24.83C34.1064 25.83 34.3064 26.71 34.7064 27.47C35.1264 28.21 35.6664 28.78 36.3264 29.18C37.0064 29.58 37.7264 29.78 38.4864 29.78C39.2664 29.78 39.9964 29.59 40.6764 29.21C41.3564 28.81 41.8964 28.25 42.2964 27.53C42.6964 26.79 42.8964 25.91 42.8964 24.89Z" fill="white"/>
<path d="M56.1184 20.03V28.07C56.1184 28.63 56.2484 29.04 56.5084 29.3C56.7884 29.54 57.2484 29.66 57.8884 29.66H59.8384V33.2H57.1984C53.6584 33.2 51.8884 31.48 51.8884 28.04V20.03H49.9084V16.58H51.8884V12.47H56.1184V16.58H59.8384V20.03H56.1184Z" fill="white"/>
<path d="M72.2193 16.34C73.4793 16.34 74.5993 16.62 75.5793 17.18C76.5593 17.72 77.3193 18.53 77.8593 19.61C78.4193 20.67 78.6993 21.95 78.6993 23.45V33.2H74.4993V24.02C74.4993 22.7 74.1693 21.69 73.5093 20.99C72.8493 20.27 71.9493 19.91 70.8093 19.91C69.6493 19.91 68.7293 20.27 68.0493 20.99C67.3893 21.69 67.0593 22.7 67.0593 24.02V33.2H62.8593V11H67.0593V18.65C67.5993 17.93 68.3193 17.37 69.2193 16.97C70.1193 16.55 71.1193 16.34 72.2193 16.34Z" fill="white"/>
<path d="M98.1433 24.53C98.1433 25.13 98.1033 25.67 98.0233 26.15H85.8733C85.9733 27.35 86.3933 28.29 87.1333 28.97C87.8733 29.65 88.7833 29.99 89.8633 29.99C91.4233 29.99 92.5333 29.32 93.1933 27.98H97.7233C97.2433 29.58 96.3233 30.9 94.9633 31.94C93.6033 32.96 91.9333 33.47 89.9533 33.47C88.3533 33.47 86.9133 33.12 85.6333 32.42C84.3733 31.7 83.3833 30.69 82.6633 29.39C81.9633 28.09 81.6133 26.59 81.6133 24.89C81.6133 23.17 81.9633 21.66 82.6633 20.36C83.3633 19.06 84.3433 18.06 85.6033 17.36C86.8633 16.66 88.3133 16.31 89.9533 16.31C91.5333 16.31 92.9433 16.65 94.1833 17.33C95.4433 18.01 96.4133 18.98 97.0933 20.24C97.7933 21.48 98.1433 22.91 98.1433 24.53ZM93.7933 23.33C93.7733 22.25 93.3833 21.39 92.6233 20.75C91.8633 20.09 90.9333 19.76 89.8333 19.76C88.7933 19.76 87.9133 20.08 87.1933 20.72C86.4933 21.34 86.0633 22.21 85.9033 23.33H93.7933Z" fill="white"/>
<path d="M105.409 19.16C105.949 18.28 106.649 17.59 107.509 17.09C108.389 16.59 109.389 16.34 110.509 16.34V20.75H109.399C108.079 20.75 107.079 21.06 106.399 21.68C105.739 22.3 105.409 23.38 105.409 24.92V33.2H101.209V16.58H105.409V19.16Z" fill="white"/>
<path d="M19.24 15.5305V20.9305H26.2V24.1705H19.24V29.8705H27.1V33.2005H15.01V29.2705H7.66L5.59 33.2005H1L12.16 12.2305H27.1V15.5305H19.24ZM15.01 26.0305V15.2905L9.37 26.0305H15.01Z" fill="url(#paint0_linear_45_2054)"/>
<defs>
<linearGradient id="paint0_linear_45_2054" x1="0.730468" y1="23.2002" x2="26.7305" y2="23.2002" gradientUnits="userSpaceOnUse">
<stop stop-color="#2351F7"/>
<stop offset="1" stop-color="#FF53C2"/>
</linearGradient>
</defs>
</svg>
