<svg width="90" height="24" viewBox="0 0 90 24" fill="none" xmlns="http://www.w3.org/2000/svg">
<path d="M34.7862 9.83005V17.87C34.7862 18.43 34.9162 18.84 35.1762 19.1C35.4562 19.34 35.9162 19.46 36.5562 19.46H38.5062V23H35.8662C32.3262 23 30.5562 21.2801 30.5562 17.84V9.83005H28.5762V6.38005H30.5562V2.27005H34.7862V6.38005H38.5062V9.83005H34.7862Z" fill="white"/>
<path d="M50.887 6.14005C52.147 6.14005 53.267 6.42005 54.247 6.98005C55.227 7.52005 55.987 8.33005 56.527 9.41005C57.087 10.47 57.367 11.75 57.367 13.25V23H53.167V13.82C53.167 12.5 52.837 11.49 52.177 10.79C51.517 10.07 50.617 9.71005 49.477 9.71005C48.317 9.71005 47.397 10.07 46.717 10.79C46.057 11.49 45.727 12.5 45.727 13.82V23H41.527V0.800049H45.727V8.45005C46.267 7.73005 46.987 7.17005 47.887 6.77005C48.787 6.35005 49.787 6.14005 50.887 6.14005Z" fill="white"/>
<path d="M76.811 14.33C76.811 14.93 76.771 15.47 76.691 15.95H64.541C64.641 17.15 65.061 18.09 65.801 18.7701C66.541 19.4501 67.451 19.79 68.531 19.79C70.091 19.79 71.201 19.12 71.861 17.78H76.391C75.911 19.38 74.991 20.7 73.631 21.74C72.271 22.76 70.601 23.2701 68.621 23.2701C67.021 23.2701 65.581 22.9201 64.301 22.2201C63.041 21.5001 62.051 20.49 61.331 19.1901C60.631 17.8901 60.281 16.39 60.281 14.6901C60.281 12.97 60.631 11.46 61.331 10.16C62.031 8.86005 63.011 7.86005 64.271 7.16005C65.531 6.46005 66.981 6.11005 68.621 6.11005C70.201 6.11005 71.611 6.45005 72.851 7.13005C74.111 7.81005 75.081 8.78005 75.761 10.04C76.461 11.28 76.811 12.71 76.811 14.33ZM72.461 13.13C72.441 12.05 72.051 11.19 71.291 10.55C70.531 9.89005 69.601 9.56005 68.501 9.56005C67.461 9.56005 66.581 9.88005 65.861 10.5201C65.161 11.14 64.731 12.01 64.571 13.13H72.461Z" fill="white"/>
<path d="M84.0766 8.96005C84.6166 8.08005 85.3166 7.39005 86.1766 6.89005C87.0566 6.39005 88.0566 6.14005 89.1766 6.14005V10.55H88.0666C86.7466 10.55 85.7466 10.86 85.0666 11.48C84.4066 12.1 84.0766 13.18 84.0766 14.72V23H79.8766V6.38005H84.0766V8.96005Z" fill="white"/>
<path d="M18.24 5.33003V10.73H25.2V13.97H18.24V19.67H26.1V23H14.01V19.07H6.66L4.59 23H0L11.16 2.03003H26.1V5.33003H18.24ZM14.01 15.83V5.09003L8.37 15.83H14.01Z" fill="url(#paint0_linear_214_352)"/>
<defs>
<linearGradient id="paint0_linear_214_352" x1="-0.269532" y1="12.9998" x2="25.7305" y2="12.9998" gradientUnits="userSpaceOnUse">
<stop stop-color="#2351F7"/>
<stop offset="1" stop-color="#FF53C2"/>
</linearGradient>
</defs>
</svg>
