<svg width="0" height="0" class="hidden">
  <symbol fill="none"
    xmlns="http://www.w3.org/2000/svg" viewBox="0 0 83 35" id="icon-deus">
    <path d="M20.2745 0.417813V31.4983C20.2748 31.5696 20.2577 31.6397 20.225 31.7023C20.1922 31.7635 20.1449 31.815 20.0877 31.8517C20.0304 31.8884 19.9652 31.9091 19.898 31.912C19.8302 31.9156 19.7627 31.8997 19.7029 31.866L14.0999 28.9332C14.0342 28.9003 13.9789 28.8485 13.9404 28.7839C13.902 28.7193 13.882 28.6445 13.8828 28.5684V3.35064C13.8824 3.2755 13.9024 3.20178 13.9405 3.13808C13.9788 3.07257 14.0341 3.01977 14.0999 2.98583L19.7029 0.0530048C19.7616 0.0182617 19.8279 0 19.8953 0C19.9627 0 20.029 0.0182617 20.0877 0.0530048C20.145 0.0896362 20.1924 0.141151 20.2252 0.202552C20.2579 0.263953 20.2749 0.333157 20.2745 0.403451V0.417813Z" fill="currentColor"></path>
    <path d="M64.3995 11.5576V31.5014C64.4 31.571 64.3833 31.6395 64.351 31.7004C64.3188 31.7613 64.2721 31.8124 64.2154 31.8489C64.1583 31.8859 64.0929 31.9067 64.0258 31.9093C63.9592 31.9122 63.893 31.8974 63.8334 31.8662L58.2249 28.9333C58.1598 28.8997 58.105 28.8477 58.0667 28.7832C58.0283 28.7188 58.0079 28.6444 58.0078 28.5685V11.5576C58.0078 11.504 58.0179 11.4509 58.0375 11.4015C58.0571 11.352 58.0859 11.307 58.1221 11.2691C58.1583 11.2313 58.2014 11.2012 58.2487 11.1807C58.296 11.1602 58.3468 11.1497 58.398 11.1497H64.0093C64.0605 11.1497 64.1113 11.1602 64.1586 11.1807C64.206 11.2012 64.249 11.2313 64.2852 11.2691C64.3215 11.307 64.3502 11.352 64.3698 11.4015C64.3894 11.4509 64.3995 11.504 64.3995 11.5576Z" fill="currentColor"></path>
    <path d="M56.494 30.8003L56.3841 30.8865C56.0182 31.1652 55.6249 31.4021 55.2107 31.5932C54.8937 31.7385 54.5655 31.8557 54.2297 31.9436C53.2848 32.2009 52.296 32.2283 51.3394 32.0238C50.3827 31.8193 49.4836 31.3883 48.7112 30.7639C47.9387 30.1395 47.3135 29.3383 46.8834 28.4219C46.4534 27.5055 46.23 26.4983 46.2305 25.4776V11.612C46.2305 11.5043 46.2712 11.401 46.3438 11.3246C46.4164 11.2482 46.5149 11.2049 46.6179 11.2041L50.2177 11.2644H52.2869C52.3752 11.283 52.4546 11.3329 52.5117 11.4056C52.5688 11.4784 52.6 11.5696 52.6002 11.6637V16.4838C52.5982 16.5096 52.5982 16.5355 52.6002 16.5613V27.4223C52.5982 27.4481 52.5982 27.474 52.6002 27.4998C52.6203 28.3096 52.9425 29.079 53.4981 29.6437C54.0537 30.2084 54.7985 30.5235 55.5734 30.5217H56.3483C56.3835 30.5105 56.4214 30.5125 56.4553 30.5276C56.4892 30.5426 56.5169 30.5696 56.5336 30.6039C56.5503 30.6382 56.555 30.6775 56.5467 30.715C56.5385 30.7525 56.5179 30.7858 56.4885 30.809L56.494 30.8003Z" fill="currentColor"></path>
    <path d="M13.4118 28.987C13.4232 28.9977 13.4256 29.015 13.4173 29.0283C12.6865 30.2069 11.6334 31.1288 10.3946 31.6739C9.14781 32.2225 7.77133 32.3637 6.44628 32.0789C5.80296 31.9672 5.18005 31.7521 4.59967 31.4412C3.54744 30.8831 2.6636 30.0313 2.04615 28.9803C1.4287 27.9292 1.10176 26.7199 1.10156 25.4865V18.0611C1.10156 14.3642 3.99788 11.2446 7.53171 11.2647H7.8065C8.68562 11.2637 9.55627 11.4444 10.3684 11.7964C11.1804 12.1484 11.9179 12.6647 12.5384 13.3157C12.832 13.6221 13.0973 13.9567 13.3306 14.315C13.3745 14.3824 13.3652 14.4709 13.3096 14.529C13.236 14.6059 13.1114 14.6002 13.0402 14.521C13.0115 14.489 12.9824 14.4577 12.9534 14.4274C12.6574 14.1162 12.3055 13.8694 11.9178 13.7013C11.53 13.5332 11.1143 13.447 10.6946 13.4478H10.4692C10.077 13.4452 9.68808 13.5238 9.32507 13.6793C8.96206 13.8347 8.63213 14.0638 8.35436 14.3534C8.07659 14.643 7.8565 14.9872 7.7068 15.3662C7.55711 15.7453 7.48078 16.1516 7.48224 16.5616V27.4226C7.4837 28.2451 7.79731 29.0335 8.35423 29.6146C8.91115 30.1957 9.66588 30.522 10.4528 30.522H10.6781C11.2186 30.5228 11.7504 30.3798 12.2235 30.1064C12.685 29.8397 13.0758 29.4574 13.361 28.9941C13.3719 28.9763 13.3965 28.9728 13.4118 28.987Z" fill="currentColor"></path>
    <path d="M82.4155 25.1937C82.4155 27.0244 81.9392 28.5401 80.9866 29.7408C80.8486 29.9145 80.7009 30.0795 80.5442 30.2349C79.4148 31.3839 77.9666 32.0015 76.208 32.1193H76.1805H76.0156H75.3286C74.1965 32.0784 73.0701 31.9332 71.9624 31.6855L71.803 31.6511C70.7082 31.3544 69.6434 30.9475 68.6237 30.436C68.5795 30.4134 68.5419 30.3789 68.5148 30.3359C68.4877 30.293 68.4722 30.2432 68.4698 30.1918L68.2775 25.3402C68.2767 25.3208 68.2797 25.3015 68.2863 25.2834C68.2929 25.2653 68.3029 25.2488 68.3157 25.2349C68.3285 25.2209 68.3439 25.2098 68.361 25.2022C68.378 25.1947 68.3963 25.1908 68.4148 25.1908H68.577C68.6282 25.1904 68.6785 25.205 68.7222 25.2329C68.7659 25.2608 68.8013 25.301 68.8243 25.3488C69.6067 26.9416 70.6386 28.3863 71.8772 29.6231C72.9068 30.6457 73.984 31.2537 75.1088 31.4471C75.3695 31.4922 75.6333 31.5143 75.8975 31.5132C76.0296 31.5163 76.1617 31.5105 76.2932 31.4959H76.3591C76.4057 31.5001 76.4526 31.5001 76.4993 31.4959C76.7457 31.4725 76.9884 31.4175 77.222 31.3322C77.3157 31.3031 77.4075 31.2676 77.4967 31.2259C77.5709 31.1943 77.6451 31.1627 77.7138 31.1254C77.8292 31.0651 77.9337 31.0019 78.0408 30.9329C78.3445 30.7266 78.6153 30.4717 78.8432 30.1775C78.9047 30.1051 78.9625 30.0293 79.0164 29.9505C79.0686 29.8672 79.1235 29.7897 79.1702 29.7092C79.3414 29.2892 79.4247 28.8357 79.4148 28.3793C79.4369 27.9045 79.3425 27.4317 79.1405 27.0058C78.9385 26.58 78.6356 26.2152 78.2607 25.9463C77.2458 25.271 76.1318 24.7741 74.9632 24.4755C73.917 24.1909 72.8921 23.827 71.8965 23.3869C71.3867 23.1405 70.9039 22.8371 70.4566 22.482C70.3274 22.3843 70.1983 22.2723 70.0691 22.1632C68.9058 21.1559 68.3242 19.5942 68.3242 17.4781C68.3207 16.795 68.4237 16.1158 68.6292 15.4674C68.6567 15.3898 68.6841 15.3122 68.7171 15.2347C68.8136 14.972 68.9256 14.7159 69.0524 14.4677C69.0524 14.4677 69.0524 14.4361 69.0744 14.4189C69.355 13.912 69.6977 13.4456 70.0938 13.0315C70.9367 12.1538 72.0148 11.5648 73.1853 11.3424C73.7562 11.2242 74.3371 11.1664 74.9192 11.1701C75.2462 11.1701 75.5869 11.1873 75.9249 11.2218C76.5164 11.2799 77.1031 11.3816 77.6809 11.5263C77.7021 11.5347 77.7243 11.5405 77.7468 11.5435C77.8897 11.5809 78.0518 11.6239 78.2249 11.6785C79.1905 11.9804 80.1307 12.3647 81.0361 12.8275C81.0404 12.8301 81.0439 12.8339 81.0464 12.8385C81.0488 12.843 81.05 12.8482 81.0498 12.8534L81.1295 15.2261L81.1927 17.2167C81.1934 17.2361 81.1904 17.2553 81.1839 17.2734C81.1773 17.2915 81.1673 17.3081 81.1545 17.322C81.1416 17.336 81.1262 17.3471 81.1092 17.3546C81.0922 17.3622 81.0738 17.3661 81.0553 17.3661H80.9152C80.8657 17.3662 80.8172 17.3524 80.7746 17.3261C80.7321 17.2998 80.6971 17.262 80.6734 17.2167C80.1677 16.2543 79.5888 15.3359 78.9422 14.4706C78.6572 14.0897 78.3526 13.7254 78.0298 13.379L77.9556 13.3015C76.9811 12.2827 75.9222 11.7733 74.779 11.7733C73.6359 11.7733 72.7483 12.0491 72.1163 12.6006C71.8116 12.8713 71.5697 13.2107 71.4088 13.5934C71.2479 13.976 71.1722 14.3919 71.1875 14.8096C71.1737 15.2377 71.2712 15.6617 71.4696 16.0365C71.668 16.4113 71.9599 16.7228 72.3142 16.9381C73.1751 17.4824 74.1072 17.8927 75.0813 18.156L75.6309 18.3111C76.4278 18.5381 76.9637 18.6989 77.2494 18.7966C77.5938 18.9115 78.0216 19.0704 78.5327 19.2734C78.971 19.4397 79.3911 19.6545 79.7858 19.914C80.1495 20.1674 80.494 20.4498 80.8162 20.7585C81.1664 21.0746 81.4579 21.4553 81.6763 21.8817C82.1923 22.9004 82.4469 24.0415 82.4155 25.1937Z" fill="currentColor"></path>
    <path d="M43.2854 21.9131V21.1461C43.2826 20.9867 43.2716 20.8275 43.2525 20.6693L43.236 20.4941L43.2195 20.3591C43.2193 20.2718 43.2083 20.1848 43.1865 20.1005C43.181 20.0141 43.1672 19.9284 43.1453 19.8449C43.1288 19.7616 43.1261 19.7329 43.1151 19.6754C43.1041 19.618 43.0876 19.5232 43.0711 19.4456C43.0299 19.2388 42.9804 19.0348 42.9255 18.8309L42.8595 18.5954L42.7826 18.3512C42.7578 18.2708 42.7304 18.1932 42.7029 18.1128C42.6479 17.9548 42.5902 17.7968 42.527 17.6388L42.4528 17.455C42.4138 17.3568 42.3698 17.2609 42.3209 17.1677C42.2742 17.0815 42.2137 16.9322 42.1533 16.8201C42.0324 16.5731 41.8977 16.3289 41.7548 16.0934C41.7136 16.0216 41.6697 15.9526 41.6257 15.8837C41.5487 15.7631 41.4718 15.6453 41.3894 15.5275L41.2712 15.358L41.197 15.2575C41.153 15.1972 41.1091 15.1369 41.0624 15.0794C40.8618 14.8209 40.6529 14.571 40.4303 14.3354L40.282 14.1803C40.161 14.0568 40.0401 13.9361 39.9137 13.8212C39.856 13.7638 39.7956 13.7092 39.7351 13.6575L39.6939 13.6202L39.3641 13.3329L39.1745 13.1835C38.9822 13.0342 38.7843 12.8934 38.581 12.7613C38.515 12.7182 38.4463 12.6722 38.3776 12.632L38.1715 12.5056C38.1001 12.4626 38.0314 12.4223 37.96 12.385L37.7484 12.2701L37.5313 12.1581C37.4598 12.1207 37.3856 12.0863 37.3114 12.0547L37.0916 11.9541C36.9405 11.888 36.7921 11.8277 36.6382 11.7703L36.4101 11.687L36.1765 11.6094L35.943 11.5376C35.7863 11.4916 35.627 11.4486 35.4676 11.4112L35.2752 11.3681L34.9839 11.3107C34.8191 11.2791 34.6569 11.2532 34.4893 11.2331L34.242 11.2015L33.8793 11.1699H32.7801C31.2087 11.2389 29.6745 11.6916 28.3005 12.4917C26.9265 13.2917 25.7508 14.417 24.8675 15.7774C23.9842 17.1378 23.4179 18.6954 23.214 20.3257C23.01 21.9559 23.1741 23.6134 23.693 25.1655C24.2119 26.7176 25.0712 28.1211 26.2022 29.2636C27.3332 30.4062 28.7044 31.256 30.206 31.7451C31.7076 32.2342 33.2979 32.349 34.8495 32.0802C36.4012 31.8115 37.8711 31.1666 39.1416 30.1974L39.3009 30.071C39.4301 29.9676 39.5592 29.8671 39.6802 29.7608C39.7214 29.7292 39.7598 29.6947 39.8011 29.6574L39.9 29.5597L39.9302 29.5339L39.9604 29.508C40.0868 29.3902 40.2105 29.2667 40.3314 29.1403C40.8947 28.5507 41.3899 27.8942 41.8071 27.1841C41.8102 27.179 41.8119 27.173 41.8119 27.1669C41.8119 27.1608 41.8102 27.1548 41.8071 27.1497H41.7906H41.7713H41.7521L41.7191 27.1755L41.4031 27.4628C40.6978 28.1997 39.8484 28.7686 38.9132 29.1304C37.9779 29.4923 36.9789 29.6385 35.9846 29.5591C34.9903 29.4797 34.0241 29.1766 33.1523 28.6705C32.2804 28.1644 31.5236 27.4673 30.9335 26.6269C30.6858 26.2786 30.4705 25.9063 30.2905 25.5152C29.8416 24.5454 29.6095 23.4816 29.6118 22.4043V21.9131H43.2854ZM33.0384 12.1293C33.9451 12.1316 34.8138 12.5097 35.4542 13.1807C36.0945 13.8517 36.4541 14.7607 36.4541 15.7085V21.5023H29.6227V15.7085C29.6227 14.7607 29.9823 13.8517 30.6227 13.1807C31.263 12.5097 32.1318 12.1316 33.0384 12.1293Z" fill="currentColor"></path>
  </symbol>
  <symbol viewBox="0 0 34 34" fill="none"
    xmlns="http://www.w3.org/2000/svg" id="icon-login">
    <path d="M16.997 20.1746C12.684 20.1746 9 20.8546 9 23.5746C9 26.2956 12.661 26.9996 16.997 26.9996C21.31 26.9996 24.994 26.3206 24.994 23.5996C24.994 20.8786 21.334 20.1746 16.997 20.1746Z" fill="currentColor"/>
    <path d="M16.9971 17.5837C19.9351 17.5837 22.2891 15.2287 22.2891 12.2917C22.2891 9.35469 19.9351 6.99969 16.9971 6.99969C14.0601 6.99969 11.7051 9.35469 11.7051 12.2917C11.7051 15.2287 14.0601 17.5837 16.9971 17.5837Z" fill="currentColor" fill-opacity="0.4"/>
  </symbol>

  <symbol fill="none"
    xmlns="http://www.w3.org/2000/svg" viewBox="0 0 24 24" id="icon-submit">
    <path d="M2 12H22M22 12L15.1429 5M22 12L15.1429 19" stroke="currentColor" stroke-linecap="round"></path>
  </symbol>
  <symbol viewBox="0 0 13 9" fill="none"
    xmlns="http://www.w3.org/2000/svg" id="icon-check">
    <path fill-rule="evenodd" clip-rule="evenodd" d="M12.3536 0.85353L5.00004 8.20708L0.146484 3.35353L0.853591 2.64642L5.00004 6.79287L11.6465 0.146423L12.3536 0.85353Z" fill="white"/>
  </symbol>

  <svg viewBox="0 0 24 25" fill="none"
    xmlns="http://www.w3.org/2000/svg" id="icon-success">
    <path fill-rule="evenodd" clip-rule="evenodd" d="M22.3766 6.06936L10.5307 19.5306L1.62305 10.6229L2.33015 9.91581L10.4225 18.0082L21.5766 5.46936L22.3766 6.06936Z" fill="white"/>
  </svg>


</svg>